<svg width="32" height="32" viewBox="0 0 32 32" fill="none" xmlns="http://www.w3.org/2000/svg">
<g opacity="0.2">
<path d="M6.27488 17.5083C5.52846 16.982 4.78205 16.4551 4.03563 15.9276L2.21387 14.6402L10.5307 28.0461L8.89683 24.0022C8.19153 22.2599 6.97132 19.2347 6.27488 17.5083Z" fill="black"/>
<path d="M15.1441 14.3462C15.3586 14.9354 15.5736 15.5246 15.7849 16.1075L15.79 16.1202C15.8792 15.8845 16.2391 14.9297 16.2391 14.9297C16.8659 13.273 17.3644 11.9521 17.8078 10.7673C17.9466 10.393 18.1659 10.0538 18.4501 9.77371C18.7343 9.49365 19.0765 9.27959 19.4525 9.1467C20.698 8.69498 21.8593 8.26923 22.9031 7.88403L24.8033 7.18143C25.4097 6.95673 26.0161 6.73203 26.6225 6.50733C26.9476 5.81423 27.3373 4.98681 27.7035 4.21768L21.9049 5.48605C18.0081 6.34026 13.9729 6.34026 10.0761 5.48605L4.27808 4.21515C4.63041 4.94943 4.99033 5.70082 5.34457 6.45031C6.72038 6.97552 8.18727 7.53875 9.91858 8.20588C10.2443 8.33259 10.5688 8.4593 10.8889 8.58601L10.9781 8.62085C11.3576 8.7691 11.7467 8.92116 12.1268 9.06434C12.5313 9.21588 12.8977 9.45447 13.2002 9.76327C13.5026 10.0721 13.7337 10.4436 13.8771 10.8516C14.3073 12.0439 14.7456 13.2489 15.1233 14.2854L15.1441 14.3462Z" fill="black"/>
<path d="M26.5321 16.8025L26.4884 16.8316C26.1249 17.0783 25.7616 17.3256 25.3985 17.5735C25.1936 18.0622 24.9893 18.5517 24.7856 19.0421L24.0537 20.8027C23.7387 21.563 23.4224 22.3232 23.1049 23.0835C22.9834 23.3732 22.8622 23.6636 22.7412 23.9546C22.6068 24.2744 22.4176 24.5682 22.182 24.8226C21.3521 25.726 20.2141 26.9589 19.209 28.048L24.9823 25.1273L29.7739 14.5876L27.7371 15.9814C27.3356 16.2559 26.934 16.5296 26.5321 16.8025Z" fill="black"/>
</g>
<path d="M11.5917 11.6758C11.5679 11.5972 11.5256 11.5255 11.4683 11.4666C11.4111 11.4077 11.3406 11.3635 11.2628 11.3375C10.5214 11.0569 9.78576 10.7604 9.04883 10.4759C8.15819 10.1317 7.26692 9.7887 6.37501 9.44701C5.51811 9.11925 4.66142 8.79192 3.80494 8.46501H3.79861L1.66373 7.67307L1.00524 7.43042V7.62048C1.00524 8.70322 1.00524 9.77455 1.00018 10.5684C0.998564 10.6289 1.00778 10.6892 1.02738 10.7464C1.03461 10.7658 1.04328 10.7847 1.05332 10.8028C1.06091 10.8155 1.06913 10.8275 1.07735 10.8389C1.09725 10.8648 1.11948 10.8887 1.14377 10.9105L1.16971 10.932L1.20766 10.9599C2.35512 11.7671 3.50194 12.5755 4.64813 13.3852L6.37312 14.6035C6.94368 15.0073 7.51509 15.4106 8.08734 15.8136C8.20197 15.893 8.29012 16.0051 8.34037 16.1354C9.11209 18.0538 11.0041 22.7357 11.1837 23.1798C11.8675 21.3761 12.8163 18.8628 13.5242 16.9901C13.5185 16.9761 13.514 16.9615 13.509 16.9463C12.8682 15.1882 12.2249 13.4346 11.5917 11.6758Z" fill="black"/>
<path d="M30.9943 6.46298C30.9943 6.17092 30.9943 5.64507 30.9943 5.38975C30.9943 4.03966 30.9905 3.01711 30.9886 3L30.9829 3.01077C30.9759 3.02281 30.9645 3.04435 30.9494 3.07413C30.9386 3.09377 30.9266 3.11721 30.9127 3.14572C30.907 3.15965 30.8994 3.17423 30.8912 3.1907C30.8829 3.20717 30.8665 3.23885 30.8538 3.26609C30.6483 3.6855 30.2358 4.5484 29.7905 5.48795C29.6552 5.77305 29.3768 6.36161 29.244 6.64354L28.991 7.17699L30.8564 6.5124L30.9943 6.46298Z" fill="black"/>
<path d="M30.9959 7.64456V7.48047L30.4266 7.69144L28.1715 8.52456C27.4327 8.79614 26.6947 9.0692 25.9576 9.34374C25.2685 9.60054 24.5795 9.85628 23.8904 10.111L23.743 10.1648C22.5905 10.5918 21.4359 11.0142 20.2791 11.4319C20.2336 11.4459 20.192 11.4704 20.1576 11.5034C20.1232 11.5364 20.097 11.577 20.0812 11.622C19.5591 13.012 19.0353 14.4018 18.5099 15.7914C17.42 18.6702 14.9929 25.1179 14.8448 25.4536C14.7804 25.6068 14.7508 25.7723 14.7582 25.9383C14.7582 26.5972 14.7582 29.2619 14.7582 29.2619C14.7797 29.2619 18.5434 25.1914 20.3981 23.1729C20.442 23.126 20.4777 23.072 20.5037 23.0132C21.1097 21.5586 21.7153 20.1031 22.3204 18.6468C22.6721 17.7991 23.0255 16.9518 23.3806 16.105C23.408 16.0304 23.4553 15.9647 23.5172 15.9149L23.8885 15.6615C24.3009 15.3794 24.7142 15.0981 25.1283 14.8176L25.3048 14.6979C25.659 14.4571 26.0135 14.2157 26.3681 13.9737L28.6188 12.4329C29.1185 12.09 29.6188 11.7474 30.1198 11.4053L30.87 10.8921C30.8906 10.8793 30.9095 10.864 30.9263 10.8465C30.952 10.8224 30.9719 10.7928 30.9845 10.7599C30.9971 10.7269 31.0021 10.6916 30.9991 10.6565C30.9984 9.84234 30.9978 8.74693 30.9959 7.64456Z" fill="black"/>
<path d="M2.96563 7.10221L2.73601 6.61818L2.18316 5.46195C1.9352 4.9437 1.6866 4.42504 1.43737 3.90595C1.36906 3.76403 1.30011 3.62212 1.23053 3.4802C1.16158 3.33829 1.09326 3.19701 1.02431 3.05573C1.02431 3.05573 1.02431 3.06396 1.02431 3.07283C1.02431 3.0817 1.02431 3.09501 1.02431 3.11148C1.02431 3.12795 1.02431 3.14759 1.02431 3.1704C1.02431 3.19321 1.02431 3.21981 1.02431 3.24959C1.02431 3.27937 1.02431 3.31295 1.02431 3.34652C1.01356 3.73426 1.01103 4.47488 1.00977 5.36501C1.00977 5.60956 1.00977 6.1069 1.00977 6.40467L1.26911 6.4978L2.96563 7.10221Z" fill="black"/>
</svg>
