<svg width="400" height="349" viewBox="0 0 400 349" fill="none" xmlns="http://www.w3.org/2000/svg">
<g opacity="0.2">
<path d="M70.3342 192.804C60.3819 185.81 50.4297 178.808 40.4775 171.797L16.1874 154.689L127.079 332.843L105.293 279.102C95.8894 255.949 79.6201 215.747 70.3342 192.804Z" fill="white"/>
<path d="M188.588 150.783C191.448 158.613 194.315 166.443 197.132 174.188L197.2 174.357C198.389 171.225 203.188 158.537 203.188 158.537C211.546 136.52 218.192 118.966 224.104 103.222C225.955 98.2468 228.878 93.7389 232.668 90.0172C236.457 86.2955 241.02 83.4509 246.033 81.6848C262.64 75.6818 278.125 70.0239 292.041 64.905L317.377 55.5679C325.462 52.5818 333.548 49.5957 341.633 46.6097C345.968 37.3989 351.164 26.4032 356.047 16.182L278.732 33.0376C226.774 44.3894 172.972 44.3894 121.015 33.0376L43.7078 16.1484C48.4055 25.9064 53.2045 35.8918 57.9276 45.8519C76.2717 52.8316 95.8304 60.3164 118.914 69.182C123.258 70.8659 127.585 72.5498 131.852 74.2336L133.042 74.6967C138.102 76.6668 143.289 78.6875 148.358 80.5903C153.751 82.6041 158.636 85.7748 162.669 89.8786C166.701 93.9824 169.782 98.9194 171.695 104.341C177.43 120.187 183.275 136.2 188.31 149.974L188.588 150.783Z" fill="white"/>
<path d="M340.427 183.425L339.845 183.812C334.998 187.09 330.154 190.376 325.313 193.671C322.58 200.165 319.856 206.67 317.14 213.187L307.382 236.584C303.182 246.688 298.965 256.791 294.731 266.894C293.112 270.745 291.495 274.604 289.882 278.471C288.09 282.721 285.567 286.625 282.426 290.005C271.36 302.011 256.187 318.396 242.786 332.868L319.763 294.055L383.652 153.99L356.494 172.513C351.141 176.161 345.785 179.799 340.427 183.425Z" fill="white"/>
</g>
<path d="M141.223 115.295C140.905 114.25 140.341 113.297 139.578 112.514C138.815 111.732 137.875 111.144 136.837 110.799C126.952 107.069 117.143 103.129 107.318 99.3487C95.4424 94.7741 83.5588 90.2164 71.6668 85.6756C60.2414 81.32 48.8189 76.97 37.3991 72.6256H37.3148L8.84976 62.1013L0.0698903 58.8767V61.4025C0.0698903 75.7912 0.0698903 90.0284 0.00241772 100.578C-0.019146 101.382 0.103681 102.183 0.365083 102.944C0.461474 103.202 0.577062 103.452 0.71088 103.693C0.812089 103.861 0.921732 104.021 1.03138 104.173C1.29664 104.517 1.59309 104.835 1.91695 105.124L2.26275 105.411L2.7688 105.781C18.0682 116.507 33.3592 127.25 48.6417 138.01L71.6415 154.201C79.249 159.567 86.8678 164.927 94.4978 170.282C96.0262 171.338 97.2015 172.828 97.8715 174.559C108.161 200.053 133.387 262.272 135.783 268.174C144.9 244.204 157.551 210.804 166.989 185.917C166.913 185.731 166.854 185.538 166.786 185.336C158.243 161.972 149.665 138.667 141.223 115.295Z" fill="white"/>
<path d="M399.921 46.0203C399.921 42.139 399.921 35.1509 399.921 31.7579C399.921 13.8162 399.871 0.227323 399.845 0L399.769 0.143129C399.677 0.303098 399.525 0.589356 399.322 0.985067C399.179 1.24607 399.019 1.55758 398.833 1.93646C398.757 2.12168 398.656 2.31533 398.546 2.53423C398.437 2.75314 398.217 3.1741 398.049 3.53614C395.308 9.10977 389.809 20.577 383.871 33.0629C382.066 36.8516 378.355 44.6732 376.584 48.4198L373.21 55.509L398.083 46.677L399.921 46.0203Z" fill="white"/>
<path d="M399.947 61.7225V59.5418L392.356 62.3455L362.288 73.417C352.437 77.0261 342.598 80.6548 332.769 84.3032C323.582 87.7159 314.394 91.1145 305.207 94.4991L303.241 95.2147C287.874 100.889 272.479 106.502 257.056 112.053C256.449 112.239 255.894 112.565 255.436 113.003C254.977 113.442 254.628 113.982 254.417 114.579C247.456 133.051 240.472 151.521 233.466 169.987C218.934 208.245 186.573 293.929 184.599 298.391C183.74 300.426 183.345 302.626 183.444 304.832C183.444 313.588 183.444 349 183.444 349C183.73 349 233.913 294.906 258.642 268.081C259.228 267.458 259.704 266.741 260.05 265.96C268.13 246.629 276.205 227.287 284.273 207.933C288.962 196.668 293.674 185.409 298.409 174.155C298.775 173.163 299.405 172.29 300.23 171.629L305.181 168.261C310.68 164.512 316.191 160.774 321.712 157.047L324.065 155.455C328.788 152.256 333.514 149.048 338.243 145.832L368.251 125.356C374.914 120.798 381.586 116.246 388.265 111.7L398.268 104.88C398.542 104.709 398.794 104.506 399.019 104.274C399.361 103.954 399.626 103.56 399.794 103.122C399.962 102.685 400.029 102.215 399.989 101.748C399.98 90.9293 399.972 76.3722 399.947 61.7225Z" fill="white"/>
<path d="M26.2071 54.5155L23.1455 48.0831L15.7741 32.7177C12.468 25.8306 9.15337 18.938 5.83034 12.0397C4.91946 10.1538 4.00015 8.26783 3.0724 6.38189C2.15309 4.49595 1.2422 2.61843 0.32289 0.740906C0.32289 0.740906 0.32289 0.850358 0.32289 0.968229C0.32289 1.0861 0.32289 1.26291 0.32289 1.48181C0.32289 1.70071 0.32289 1.96172 0.32289 2.26481C0.32289 2.56791 0.32289 2.92152 0.32289 3.31723C0.32289 3.71295 0.32289 4.15917 0.32289 4.6054C0.179511 9.75806 0.145774 19.6003 0.128906 31.4295C0.128906 34.6794 0.128906 41.2886 0.128906 45.2457L3.58688 46.4834L26.2071 54.5155Z" fill="white"/>
</svg>
